<?xml version="1.0"?>
<svg xmlns:rdf="http://www.w3.org/1999/02/22-rdf-syntax-ns#" xmlns="http://www.w3.org/2000/svg" xmlns:cc="http://web.resource.org/cc/" xmlns:xlink="http://www.w3.org/1999/xlink" xmlns:dc="http://purl.org/dc/elements/1.1/" xmlns:svg="http://www.w3.org/2000/svg" id="svg2" viewBox="0 0 131.62 103.91" version="1.0">
  <defs id="defs4">
    <linearGradient id="linearGradient3811" x1="57.164" gradientUnits="userSpaceOnUse" y1="273.19" gradientTransform="matrix(.59101 1.205e-7 0 .99459 23.706 1.2508)" x2="267.87" y2="273.19">
      <stop id="stop3807" stop-color="green" offset="0"/>
      <stop id="stop3809" stop-color="green" stop-opacity="0" offset="1"/>
    </linearGradient>
  </defs>
  <g id="layer1" transform="translate(-47.297 -195.36)">
    <rect id="rect3683" stroke-linejoin="round" transform="rotate(-90)" rx="1.145" ry="0" height="0" width="4.5798" stroke="#000" y="96.502" x="31.094" stroke-width="3"/>
    <path id="path3685" stroke-linejoin="round" d="m346.6 127.24h0.04z" transform="matrix(0 -1 1 0 26.514 369.07)" stroke="#000" stroke-width="3"/>
    <rect id="rect2013" stroke-linejoin="round" transform="matrix(.98241 -.18672 0 1 0 0)" height="73.418" width="123.92" stroke="#000" stroke-linecap="round" y="236.25" x="57.798" stroke-width=".79829" fill="url(#linearGradient3811)"/>
    <rect id="rect2902" stroke-linejoin="round" transform="matrix(.98159 -.191 0 1 0 0)" height="26.456" width="123" stroke="#000" stroke-linecap="round" y="237.19" x="58.511" stroke-width=".47744" fill="#f9f9f9"/>
    <path id="text3793" transform="matrix(1 -.21744 0 1 0 0)" d="m64.154 246.58h1.763l2.233 5.95 2.244-5.95h1.763v8.75h-1.154v-7.69l-2.256 6h-1.189l-2.256-6v7.69h-1.148v-8.75m15.902 5.19v0.53h-4.957c0.047 0.74 0.269 1.31 0.668 1.7 0.402 0.39 0.961 0.58 1.676 0.58 0.414 0 0.814-0.05 1.201-0.15 0.39-0.1 0.777-0.26 1.16-0.46v1.02c-0.387 0.17-0.783 0.29-1.189 0.38-0.407 0.08-0.819 0.13-1.237 0.13-1.047 0-1.877-0.31-2.49-0.92-0.609-0.61-0.914-1.43-0.914-2.47 0-1.08 0.289-1.93 0.867-2.56 0.582-0.63 1.365-0.95 2.35-0.95 0.882 0 1.58 0.29 2.091 0.86 0.516 0.57 0.774 1.34 0.774 2.31m-1.078-0.31c-0.008-0.59-0.174-1.06-0.498-1.41-0.321-0.36-0.746-0.53-1.278-0.53-0.601 0-1.084 0.17-1.447 0.51-0.359 0.34-0.566 0.82-0.621 1.43h3.844m7.142-1.7v-3.55h1.079v9.12h-1.079v-0.99c-0.226 0.39-0.513 0.68-0.861 0.87-0.344 0.19-0.758 0.29-1.242 0.29-0.793 0-1.44-0.32-1.94-0.95-0.496-0.64-0.744-1.47-0.744-2.5s0.248-1.86 0.744-2.5c0.5-0.63 1.147-0.95 1.94-0.95 0.484 0 0.898 0.1 1.242 0.29 0.348 0.19 0.635 0.48 0.861 0.87m-3.673 2.29c0 0.79 0.162 1.42 0.486 1.87 0.328 0.45 0.777 0.67 1.348 0.67 0.57 0 1.019-0.22 1.347-0.67s0.492-1.08 0.492-1.87-0.164-1.41-0.492-1.86c-0.328-0.46-0.777-0.68-1.347-0.68-0.571 0-1.02 0.22-1.348 0.68-0.324 0.45-0.486 1.07-0.486 1.86m6.972-3.29h1.078v6.57h-1.078v-6.57m0-2.55h1.078v1.36h-1.078v-1.36m8.051 2.8v1.01c-0.305-0.17-0.611-0.29-0.92-0.37-0.305-0.09-0.613-0.13-0.926-0.13-0.699 0-1.242 0.22-1.629 0.67-0.386 0.44-0.58 1.06-0.58 1.86s0.194 1.42 0.58 1.87c0.387 0.44 0.93 0.66 1.629 0.66 0.313 0 0.621-0.04 0.926-0.12 0.309-0.09 0.615-0.21 0.92-0.38v0.99c-0.301 0.14-0.613 0.25-0.938 0.32-0.32 0.07-0.662 0.11-1.025 0.11-0.988 0-1.773-0.32-2.355-0.94s-0.873-1.46-0.873-2.51c0-1.07 0.293-1.91 0.878-2.53 0.59-0.61 1.397-0.92 2.42-0.92 0.332 0 0.657 0.04 0.973 0.11s0.623 0.17 0.92 0.3m1.887-0.25h1.073v6.57h-1.073v-6.57m0-2.55h1.073v1.36h-1.073v-1.36m8.783 5.15v3.97h-1.08v-3.93c0-0.62-0.12-1.09-0.36-1.4-0.24-0.3-0.61-0.46-1.09-0.46-0.58 0-1.04 0.19-1.38 0.56-0.33 0.37-0.5 0.88-0.5 1.52v3.71h-1.09v-6.57h1.09v1.02c0.26-0.39 0.56-0.69 0.91-0.88 0.35-0.2 0.75-0.3 1.21-0.3 0.75 0 1.32 0.24 1.71 0.71 0.39 0.46 0.58 1.15 0.58 2.05m7.78 0.41v0.53h-4.96c0.05 0.74 0.27 1.31 0.67 1.7s0.96 0.58 1.67 0.58c0.42 0 0.82-0.05 1.2-0.15 0.39-0.1 0.78-0.26 1.16-0.46v1.02c-0.38 0.17-0.78 0.29-1.19 0.38-0.4 0.08-0.81 0.13-1.23 0.13-1.05 0-1.88-0.31-2.49-0.92s-0.92-1.43-0.92-2.47c0-1.08 0.29-1.93 0.87-2.56s1.37-0.95 2.35-0.95c0.88 0 1.58 0.29 2.09 0.86 0.52 0.57 0.78 1.34 0.78 2.31m-1.08-0.31c-0.01-0.59-0.18-1.06-0.5-1.41-0.32-0.36-0.75-0.53-1.28-0.53-0.6 0-1.08 0.17-1.45 0.51-0.35 0.34-0.56 0.82-0.62 1.43h3.85"/>
    <rect id="rect3825" stroke-linejoin="round" transform="matrix(.77712 .62936 -.0019138 1 0 0)" height="73.568" width="10.974" stroke="#000" stroke-linecap="round" y="179.22" x="62.121" stroke-width="1.0285" fill="#008000"/>
    <rect id="rect3829" stroke-linejoin="round" transform="matrix(.98305 -.18334 .79629 .60492 0 0)" height="11.046" width="123.7" stroke="#000" stroke-linecap="round" y="301.97" x="-195.93" stroke-width="1.2831" fill="#fff"/>
    <path id="path3833" stroke-linejoin="round" d="m62.381 244.55l103.33-20.73" fill-rule="evenodd" stroke="#ff1700" stroke-width=".5" fill="#f00"/>
    <path id="text4720" transform="matrix(-.015611 -.87615 1.1576 .90999 0 0)" fill="#fff" d="m-291.92 41.493h0.31v1.373c0 0.242 0.04 0.416 0.13 0.523 0.09 0.106 0.23 0.159 0.43 0.159s0.34-0.053 0.42-0.159c0.09-0.107 0.14-0.281 0.14-0.523v-1.373h0.3v1.41c0 0.295-0.07 0.518-0.22 0.668-0.14 0.15-0.36 0.225-0.64 0.225-0.29 0-0.5-0.075-0.65-0.225-0.14-0.15-0.22-0.373-0.22-0.668v-1.41m3.38 0.615v0.263c-0.08-0.041-0.16-0.071-0.25-0.091-0.08-0.02-0.17-0.03-0.26-0.03-0.14 0-0.24 0.021-0.31 0.063-0.07 0.043-0.11 0.106-0.11 0.191 0 0.065 0.03 0.116 0.08 0.153 0.05 0.036 0.15 0.071 0.3 0.104l0.09 0.021c0.2 0.043 0.34 0.103 0.42 0.181 0.09 0.076 0.13 0.184 0.13 0.322 0 0.157-0.07 0.282-0.19 0.374-0.12 0.091-0.3 0.137-0.51 0.137-0.09 0-0.19-0.009-0.29-0.027-0.1-0.017-0.2-0.043-0.31-0.079v-0.287c0.11 0.053 0.21 0.094 0.31 0.121 0.1 0.026 0.2 0.039 0.29 0.039 0.13 0 0.23-0.022 0.31-0.066 0.07-0.046 0.1-0.109 0.1-0.191 0-0.076-0.02-0.134-0.08-0.174-0.05-0.04-0.16-0.079-0.33-0.117l-0.1-0.022c-0.17-0.037-0.29-0.092-0.37-0.167s-0.12-0.179-0.12-0.31c0-0.159 0.06-0.282 0.17-0.369 0.12-0.087 0.28-0.13 0.49-0.13 0.1 0 0.19 0.007 0.29 0.022 0.09 0.016 0.17 0.038 0.25 0.069m1.98 0.727v0.137h-1.28c0.01 0.191 0.07 0.338 0.17 0.438s0.25 0.15 0.43 0.15c0.11 0 0.21-0.013 0.31-0.039s0.2-0.066 0.3-0.118v0.263c-0.1 0.043-0.2 0.075-0.31 0.097-0.1 0.022-0.21 0.033-0.32 0.033-0.27 0-0.48-0.078-0.64-0.236-0.16-0.157-0.23-0.37-0.23-0.638 0-0.278 0.07-0.498 0.22-0.66 0.15-0.164 0.35-0.245 0.61-0.245 0.22 0 0.4 0.073 0.54 0.221 0.13 0.146 0.2 0.345 0.2 0.597m-0.28-0.081c0-0.153-0.05-0.274-0.13-0.365s-0.19-0.136-0.33-0.136c-0.16 0-0.28 0.044-0.37 0.131-0.1 0.088-0.15 0.212-0.17 0.371l1-0.001m2.93 0.153c0-0.205-0.04-0.366-0.13-0.482-0.08-0.117-0.2-0.175-0.34-0.175-0.15 0-0.27 0.058-0.35 0.175-0.09 0.116-0.13 0.277-0.13 0.482 0 0.204 0.04 0.365 0.13 0.482 0.08 0.116 0.2 0.174 0.35 0.174 0.14 0 0.26-0.058 0.34-0.174 0.09-0.117 0.13-0.278 0.13-0.482m-0.95-0.592c0.06-0.101 0.14-0.176 0.22-0.224 0.09-0.05 0.2-0.074 0.32-0.074 0.21 0 0.38 0.081 0.51 0.245 0.12 0.163 0.19 0.378 0.19 0.645 0 0.266-0.07 0.481-0.19 0.644-0.13 0.164-0.3 0.245-0.51 0.245-0.12 0-0.23-0.024-0.32-0.072-0.08-0.05-0.16-0.125-0.22-0.226v0.254h-0.28v-2.354h0.28v0.917m3.15 0.52v0.137h-1.28c0.01 0.191 0.07 0.338 0.17 0.438 0.11 0.1 0.25 0.15 0.44 0.15 0.1 0 0.21-0.013 0.31-0.039s0.2-0.066 0.3-0.118v0.263c-0.1 0.043-0.21 0.075-0.31 0.097-0.11 0.022-0.21 0.033-0.32 0.033-0.27 0-0.49-0.078-0.64-0.236-0.16-0.157-0.24-0.37-0.24-0.638 0-0.278 0.07-0.498 0.22-0.66 0.15-0.164 0.36-0.245 0.61-0.245 0.23 0 0.41 0.073 0.54 0.221 0.13 0.146 0.2 0.345 0.2 0.597m-0.28-0.081c0-0.153-0.04-0.274-0.13-0.365-0.08-0.091-0.19-0.136-0.33-0.136-0.15 0-0.28 0.044-0.37 0.131-0.09 0.088-0.15 0.212-0.16 0.371l0.99-0.001m1.59-1.356v0.231h-0.27c-0.1 0-0.17 0.021-0.21 0.061-0.03 0.04-0.05 0.113-0.05 0.218v0.15h0.46v0.216h-0.46v1.478h-0.28v-1.478h-0.27v-0.216h0.27v-0.118c0-0.189 0.04-0.326 0.13-0.412 0.09-0.087 0.23-0.13 0.42-0.13h0.26m0.89 0.855c-0.15 0-0.27 0.058-0.36 0.175-0.08 0.116-0.13 0.276-0.13 0.479 0 0.202 0.05 0.362 0.13 0.479 0.09 0.116 0.21 0.174 0.36 0.174s0.26-0.058 0.35-0.175 0.13-0.277 0.13-0.478-0.04-0.36-0.13-0.477c-0.09-0.118-0.2-0.177-0.35-0.177m0-0.236c0.24 0 0.43 0.078 0.57 0.236 0.14 0.157 0.21 0.375 0.21 0.654 0 0.277-0.07 0.495-0.21 0.653s-0.33 0.236-0.57 0.236c-0.25 0-0.44-0.078-0.57-0.236-0.14-0.158-0.21-0.376-0.21-0.653 0-0.279 0.07-0.497 0.21-0.654 0.13-0.158 0.32-0.236 0.57-0.236m2.22 0.301c-0.03-0.018-0.07-0.031-0.11-0.039-0.03-0.01-0.07-0.014-0.12-0.014-0.15 0-0.27 0.051-0.36 0.154-0.08 0.102-0.13 0.249-0.13 0.441v0.892h-0.28v-1.694h0.28v0.263c0.06-0.103 0.14-0.179 0.23-0.229 0.1-0.05 0.21-0.075 0.35-0.075 0.01 0 0.04 0.001 0.06 0.004 0.02 0.002 0.05 0.006 0.08 0.011v0.286m1.67 0.517v0.137h-1.28c0.01 0.191 0.07 0.338 0.17 0.438 0.11 0.1 0.25 0.15 0.43 0.15 0.11 0 0.22-0.013 0.31-0.039 0.11-0.026 0.21-0.066 0.3-0.118v0.263c-0.1 0.043-0.2 0.075-0.3 0.097-0.11 0.022-0.21 0.033-0.32 0.033-0.27 0-0.49-0.078-0.65-0.236-0.15-0.157-0.23-0.37-0.23-0.638 0-0.278 0.07-0.498 0.22-0.66 0.15-0.164 0.36-0.245 0.61-0.245 0.23 0 0.41 0.073 0.54 0.221 0.13 0.146 0.2 0.345 0.2 0.597m-0.28-0.081c0-0.153-0.04-0.274-0.13-0.365-0.08-0.091-0.19-0.136-0.33-0.136-0.15 0-0.28 0.044-0.37 0.131-0.09 0.088-0.15 0.212-0.16 0.371l0.99-0.001m0.8 0.614h0.32v0.384h-0.32v-0.384m0-1.218h0.32v0.384h-0.32v-0.384m1.98-0.657h0.41l1 1.89v-1.89h0.3v2.259h-0.42l-1-1.89v1.89h-0.29v-2.259m3.23 0.207c-0.22 0-0.4 0.083-0.53 0.249-0.13 0.165-0.19 0.391-0.19 0.676s0.06 0.51 0.19 0.675 0.31 0.248 0.53 0.248 0.4-0.083 0.53-0.248 0.19-0.39 0.19-0.675-0.06-0.511-0.19-0.676c-0.13-0.166-0.31-0.249-0.53-0.249m0-0.248c0.32 0 0.57 0.107 0.76 0.32 0.19 0.211 0.29 0.496 0.29 0.853 0 0.356-0.1 0.641-0.29 0.854-0.19 0.211-0.44 0.317-0.76 0.317s-0.57-0.106-0.76-0.317c-0.19-0.212-0.29-0.497-0.29-0.854s0.1-0.642 0.29-0.853c0.19-0.213 0.44-0.32 0.76-0.32m2.05 2.3l-0.86-2.259h0.32l0.71 1.902 0.72-1.902h0.32l-0.86 2.259h-0.35m2.82-0.257h1.06v0.257h-1.43v-0.257c0.11-0.12 0.27-0.281 0.47-0.483s0.33-0.333 0.38-0.391c0.1-0.11 0.17-0.203 0.2-0.279 0.04-0.077 0.06-0.152 0.06-0.225 0-0.12-0.04-0.218-0.12-0.294-0.09-0.076-0.2-0.113-0.33-0.113-0.1 0-0.2 0.016-0.31 0.05-0.1 0.033-0.22 0.083-0.34 0.151v-0.309c0.13-0.049 0.24-0.087 0.35-0.112 0.1-0.025 0.2-0.038 0.29-0.038 0.24 0 0.42 0.059 0.56 0.176s0.21 0.273 0.21 0.469c0 0.093-0.02 0.181-0.05 0.265-0.04 0.082-0.1 0.18-0.19 0.293-0.03 0.03-0.11 0.114-0.24 0.255-0.14 0.139-0.33 0.334-0.57 0.585m2.35-1.801c-0.15 0-0.27 0.078-0.35 0.233s-0.12 0.387-0.12 0.698c0 0.31 0.04 0.542 0.12 0.698 0.08 0.154 0.2 0.231 0.35 0.231 0.16 0 0.28-0.077 0.36-0.231 0.08-0.156 0.12-0.388 0.12-0.698 0-0.311-0.04-0.543-0.12-0.698s-0.2-0.233-0.36-0.233m0-0.242c0.26 0 0.45 0.101 0.58 0.301 0.14 0.2 0.2 0.491 0.2 0.872 0 0.38-0.06 0.671-0.2 0.872-0.13 0.199-0.32 0.299-0.58 0.299-0.25 0-0.44-0.1-0.58-0.299-0.13-0.201-0.2-0.492-0.2-0.872 0-0.381 0.07-0.672 0.2-0.872 0.14-0.2 0.33-0.301 0.58-0.301m1.98 0.242c-0.16 0-0.28 0.078-0.36 0.233s-0.12 0.387-0.12 0.698c0 0.31 0.04 0.542 0.12 0.698 0.08 0.154 0.2 0.231 0.36 0.231 0.15 0 0.27-0.077 0.35-0.231 0.08-0.156 0.12-0.388 0.12-0.698 0-0.311-0.04-0.543-0.12-0.698s-0.2-0.233-0.35-0.233m0-0.242c0.25 0 0.44 0.101 0.58 0.301 0.13 0.2 0.2 0.491 0.2 0.872 0 0.38-0.07 0.671-0.2 0.872-0.14 0.199-0.33 0.299-0.58 0.299-0.26 0-0.45-0.1-0.59-0.299-0.13-0.201-0.19-0.492-0.19-0.872 0-0.381 0.06-0.672 0.19-0.872 0.14-0.2 0.33-0.301 0.59-0.301m2.01 1.049c-0.14 0-0.25 0.047-0.33 0.141s-0.12 0.222-0.12 0.386c0 0.162 0.04 0.291 0.12 0.385s0.19 0.141 0.33 0.141c0.13 0 0.24-0.047 0.32-0.141s0.12-0.223 0.12-0.385c0-0.164-0.04-0.292-0.12-0.386s-0.19-0.141-0.32-0.141m0.6-0.958v0.279c-0.07-0.037-0.15-0.065-0.23-0.084s-0.15-0.028-0.23-0.028c-0.2 0-0.36 0.068-0.46 0.204-0.11 0.136-0.17 0.342-0.19 0.617 0.06-0.088 0.14-0.155 0.23-0.201 0.09-0.047 0.19-0.071 0.3-0.071 0.22 0 0.4 0.069 0.53 0.207 0.13 0.137 0.2 0.325 0.2 0.562 0 0.232-0.07 0.418-0.21 0.558-0.13 0.14-0.32 0.21-0.54 0.21-0.26 0-0.46-0.1-0.6-0.299-0.14-0.201-0.21-0.492-0.21-0.872 0-0.357 0.09-0.642 0.25-0.853 0.17-0.213 0.4-0.32 0.69-0.32 0.07 0 0.15 0.008 0.23 0.023s0.16 0.038 0.24 0.068"/>
  </g>
  <metadata>
    <rdf:RDF>
      <cc:Work>
        <dc:format>image/svg+xml</dc:format>
        <dc:type rdf:resource="http://purl.org/dc/dcmitype/StillImage"/>
        <cc:license rdf:resource="http://creativecommons.org/licenses/publicdomain/"/>
        <dc:publisher>
          <cc:Agent rdf:about="http://openclipart.org/">
            <dc:title>Openclipart</dc:title>
          </cc:Agent>
        </dc:publisher>
        <dc:title>Pharmaceutical carton</dc:title>
        <dc:date>2006-11-20T06:41:43</dc:date>
        <dc:description>a carton with pills</dc:description>
        <dc:source>http://openclipart.org/detail/6135/pharmaceutical-carton-by-tulipan</dc:source>
        <dc:creator>
          <cc:Agent>
            <dc:title>tulipan</dc:title>
          </cc:Agent>
        </dc:creator>
        <dc:subject>
          <rdf:Bag>
            <rdf:li>box</rdf:li>
            <rdf:li>clip art</rdf:li>
            <rdf:li>clipart</rdf:li>
            <rdf:li>drugs</rdf:li>
            <rdf:li>green</rdf:li>
            <rdf:li>health</rdf:li>
            <rdf:li>image</rdf:li>
            <rdf:li>media</rdf:li>
            <rdf:li>medical</rdf:li>
            <rdf:li>medicine</rdf:li>
            <rdf:li>pharmaceutical</rdf:li>
            <rdf:li>pharmacology</rdf:li>
            <rdf:li>pills</rdf:li>
            <rdf:li>png</rdf:li>
            <rdf:li>public domain</rdf:li>
            <rdf:li>svg</rdf:li>
          </rdf:Bag>
        </dc:subject>
      </cc:Work>
      <cc:License rdf:about="http://creativecommons.org/licenses/publicdomain/">
        <cc:permits rdf:resource="http://creativecommons.org/ns#Reproduction"/>
        <cc:permits rdf:resource="http://creativecommons.org/ns#Distribution"/>
        <cc:permits rdf:resource="http://creativecommons.org/ns#DerivativeWorks"/>
      </cc:License>
    </rdf:RDF>
  </metadata>
</svg>
